<mxfile host="Electron" agent="Mozilla/5.0 (Windows NT 10.0; Win64; x64) AppleWebKit/537.36 (KHTML, like Gecko) draw.io/27.0.2 Chrome/134.0.6998.205 Electron/35.3.0 Safari/537.36" version="27.0.2">
  <diagram name="第 1 页" id="mjlzONZ-il4AIv4Wk3vn">
    <mxGraphModel dx="1603" dy="1111" grid="0" gridSize="10" guides="1" tooltips="1" connect="1" arrows="1" fold="1" page="0" pageScale="1" pageWidth="827" pageHeight="1169" math="0" shadow="0">
      <root>
        <mxCell id="0" />
        <mxCell id="1" parent="0" />
        <mxCell id="Nj-z_g3joPaQe4eLbE7k-52" value="开始" style="rounded=1;whiteSpace=wrap;arcSize=50;strokeWidth=2;" vertex="1" parent="1">
          <mxGeometry x="342.5" y="20" width="133" height="39" as="geometry" />
        </mxCell>
        <mxCell id="Nj-z_g3joPaQe4eLbE7k-53" value="用户类型" style="rhombus;strokeWidth=2;whiteSpace=wrap;" vertex="1" parent="1">
          <mxGeometry x="350" y="109" width="118" height="118" as="geometry" />
        </mxCell>
        <mxCell id="Nj-z_g3joPaQe4eLbE7k-54" value="微信小程序入口" style="whiteSpace=wrap;strokeWidth=2;" vertex="1" parent="1">
          <mxGeometry x="228" y="299" width="172" height="54" as="geometry" />
        </mxCell>
        <mxCell id="Nj-z_g3joPaQe4eLbE7k-55" value="PC端入口" style="whiteSpace=wrap;strokeWidth=2;" vertex="1" parent="1">
          <mxGeometry x="657" y="714" width="127" height="54" as="geometry" />
        </mxCell>
        <mxCell id="Nj-z_g3joPaQe4eLbE7k-56" value="是否已绑定" style="rhombus;strokeWidth=2;whiteSpace=wrap;" vertex="1" parent="1">
          <mxGeometry x="247" y="403" width="134" height="134" as="geometry" />
        </mxCell>
        <mxCell id="Nj-z_g3joPaQe4eLbE7k-57" value="微信自动登录" style="whiteSpace=wrap;strokeWidth=2;" vertex="1" parent="1">
          <mxGeometry x="20" y="944" width="156" height="54" as="geometry" />
        </mxCell>
        <mxCell id="Nj-z_g3joPaQe4eLbE7k-58" value="跳转绑定页面" style="whiteSpace=wrap;strokeWidth=2;" vertex="1" parent="1">
          <mxGeometry x="344" y="610" width="156" height="54" as="geometry" />
        </mxCell>
        <mxCell id="Nj-z_g3joPaQe4eLbE7k-59" value="输入账号密码" style="whiteSpace=wrap;strokeWidth=2;" vertex="1" parent="1">
          <mxGeometry x="344" y="714" width="156" height="54" as="geometry" />
        </mxCell>
        <mxCell id="Nj-z_g3joPaQe4eLbE7k-60" value="验证身份" style="whiteSpace=wrap;strokeWidth=2;" vertex="1" parent="1">
          <mxGeometry x="360" y="818" width="124" height="54" as="geometry" />
        </mxCell>
        <mxCell id="Nj-z_g3joPaQe4eLbE7k-61" value="绑定微信OpenID" style="whiteSpace=wrap;strokeWidth=2;" vertex="1" parent="1">
          <mxGeometry x="226" y="944" width="175" height="54" as="geometry" />
        </mxCell>
        <mxCell id="Nj-z_g3joPaQe4eLbE7k-62" value="提示错误信息" style="whiteSpace=wrap;strokeWidth=2;" vertex="1" parent="1">
          <mxGeometry x="451" y="944" width="156" height="54" as="geometry" />
        </mxCell>
        <mxCell id="Nj-z_g3joPaQe4eLbE7k-63" value="输入账号密码" style="whiteSpace=wrap;strokeWidth=2;" vertex="1" parent="1">
          <mxGeometry x="642" y="818" width="156" height="54" as="geometry" />
        </mxCell>
        <mxCell id="Nj-z_g3joPaQe4eLbE7k-64" value="系统验证" style="whiteSpace=wrap;strokeWidth=2;" vertex="1" parent="1">
          <mxGeometry x="658" y="944" width="124" height="54" as="geometry" />
        </mxCell>
        <mxCell id="Nj-z_g3joPaQe4eLbE7k-65" value="生成Token" style="whiteSpace=wrap;strokeWidth=2;" vertex="1" parent="1">
          <mxGeometry x="247" y="1071" width="133" height="54" as="geometry" />
        </mxCell>
        <mxCell id="Nj-z_g3joPaQe4eLbE7k-66" value="提示错误信息" style="whiteSpace=wrap;strokeWidth=2;" vertex="1" parent="1">
          <mxGeometry x="670" y="1071" width="156" height="54" as="geometry" />
        </mxCell>
        <mxCell id="Nj-z_g3joPaQe4eLbE7k-67" value="结束" style="rounded=1;whiteSpace=wrap;arcSize=50;strokeWidth=2;" vertex="1" parent="1">
          <mxGeometry x="252" y="1179" width="123" height="39" as="geometry" />
        </mxCell>
        <mxCell id="Nj-z_g3joPaQe4eLbE7k-68" value="" style="curved=1;startArrow=none;endArrow=block;exitX=0.5;exitY=1;entryX=0.5;entryY=0;rounded=0;" edge="1" parent="1" source="Nj-z_g3joPaQe4eLbE7k-52" target="Nj-z_g3joPaQe4eLbE7k-53">
          <mxGeometry relative="1" as="geometry">
            <Array as="points" />
          </mxGeometry>
        </mxCell>
        <mxCell id="Nj-z_g3joPaQe4eLbE7k-69" value="学生" style="curved=1;startArrow=none;endArrow=block;exitX=0;exitY=1;entryX=0.5;entryY=0.01;rounded=0;" edge="1" parent="1" source="Nj-z_g3joPaQe4eLbE7k-53" target="Nj-z_g3joPaQe4eLbE7k-54">
          <mxGeometry relative="1" as="geometry">
            <Array as="points">
              <mxPoint x="314" y="263" />
            </Array>
          </mxGeometry>
        </mxCell>
        <mxCell id="Nj-z_g3joPaQe4eLbE7k-70" value="教师/管理员" style="curved=1;startArrow=none;endArrow=block;exitX=1;exitY=0.65;entryX=0.5;entryY=0;rounded=0;" edge="1" parent="1" source="Nj-z_g3joPaQe4eLbE7k-53" target="Nj-z_g3joPaQe4eLbE7k-55">
          <mxGeometry relative="1" as="geometry">
            <Array as="points">
              <mxPoint x="720" y="263" />
            </Array>
          </mxGeometry>
        </mxCell>
        <mxCell id="Nj-z_g3joPaQe4eLbE7k-71" value="" style="curved=1;startArrow=none;endArrow=block;exitX=0.5;exitY=1.01;entryX=0.5;entryY=0;rounded=0;" edge="1" parent="1" source="Nj-z_g3joPaQe4eLbE7k-54" target="Nj-z_g3joPaQe4eLbE7k-56">
          <mxGeometry relative="1" as="geometry">
            <Array as="points" />
          </mxGeometry>
        </mxCell>
        <mxCell id="Nj-z_g3joPaQe4eLbE7k-72" value="已绑定" style="curved=1;startArrow=none;endArrow=block;exitX=0;exitY=0.74;entryX=0.5;entryY=0;rounded=0;" edge="1" parent="1" source="Nj-z_g3joPaQe4eLbE7k-56" target="Nj-z_g3joPaQe4eLbE7k-57">
          <mxGeometry relative="1" as="geometry">
            <Array as="points">
              <mxPoint x="98" y="574" />
            </Array>
          </mxGeometry>
        </mxCell>
        <mxCell id="Nj-z_g3joPaQe4eLbE7k-73" value="未绑定" style="curved=1;startArrow=none;endArrow=block;exitX=1;exitY=0.98;entryX=0.5;entryY=0;rounded=0;" edge="1" parent="1" source="Nj-z_g3joPaQe4eLbE7k-56" target="Nj-z_g3joPaQe4eLbE7k-58">
          <mxGeometry relative="1" as="geometry">
            <Array as="points">
              <mxPoint x="422" y="574" />
            </Array>
          </mxGeometry>
        </mxCell>
        <mxCell id="Nj-z_g3joPaQe4eLbE7k-74" value="" style="curved=1;startArrow=none;endArrow=block;exitX=0.5;exitY=1;entryX=0.5;entryY=0;rounded=0;" edge="1" parent="1" source="Nj-z_g3joPaQe4eLbE7k-58" target="Nj-z_g3joPaQe4eLbE7k-59">
          <mxGeometry relative="1" as="geometry">
            <Array as="points" />
          </mxGeometry>
        </mxCell>
        <mxCell id="Nj-z_g3joPaQe4eLbE7k-75" value="" style="curved=1;startArrow=none;endArrow=block;exitX=0.5;exitY=1;entryX=0.5;entryY=0;rounded=0;" edge="1" parent="1" source="Nj-z_g3joPaQe4eLbE7k-59" target="Nj-z_g3joPaQe4eLbE7k-60">
          <mxGeometry relative="1" as="geometry">
            <Array as="points" />
          </mxGeometry>
        </mxCell>
        <mxCell id="Nj-z_g3joPaQe4eLbE7k-76" value="成功" style="curved=1;startArrow=none;endArrow=block;exitX=0.12;exitY=1;entryX=0.5;entryY=0;rounded=0;" edge="1" parent="1" source="Nj-z_g3joPaQe4eLbE7k-60" target="Nj-z_g3joPaQe4eLbE7k-61">
          <mxGeometry relative="1" as="geometry">
            <Array as="points">
              <mxPoint x="314" y="908" />
            </Array>
          </mxGeometry>
        </mxCell>
        <mxCell id="Nj-z_g3joPaQe4eLbE7k-77" value="失败" style="curved=1;startArrow=none;endArrow=block;exitX=0.87;exitY=1;entryX=0.5;entryY=0;rounded=0;" edge="1" parent="1" source="Nj-z_g3joPaQe4eLbE7k-60" target="Nj-z_g3joPaQe4eLbE7k-62">
          <mxGeometry relative="1" as="geometry">
            <Array as="points">
              <mxPoint x="529" y="908" />
            </Array>
          </mxGeometry>
        </mxCell>
        <mxCell id="Nj-z_g3joPaQe4eLbE7k-78" value="" style="curved=1;startArrow=none;endArrow=block;exitX=0.5;exitY=1;entryX=0.5;entryY=0;rounded=0;" edge="1" parent="1" source="Nj-z_g3joPaQe4eLbE7k-55" target="Nj-z_g3joPaQe4eLbE7k-63">
          <mxGeometry relative="1" as="geometry">
            <Array as="points" />
          </mxGeometry>
        </mxCell>
        <mxCell id="Nj-z_g3joPaQe4eLbE7k-79" value="" style="curved=1;startArrow=none;endArrow=block;exitX=0.5;exitY=1;entryX=0.5;entryY=0;rounded=0;" edge="1" parent="1" source="Nj-z_g3joPaQe4eLbE7k-63" target="Nj-z_g3joPaQe4eLbE7k-64">
          <mxGeometry relative="1" as="geometry">
            <Array as="points" />
          </mxGeometry>
        </mxCell>
        <mxCell id="Nj-z_g3joPaQe4eLbE7k-80" value="成功" style="curved=1;startArrow=none;endArrow=block;exitX=0;exitY=0.9;entryX=1;entryY=0.14;rounded=0;" edge="1" parent="1" source="Nj-z_g3joPaQe4eLbE7k-64" target="Nj-z_g3joPaQe4eLbE7k-65">
          <mxGeometry relative="1" as="geometry">
            <Array as="points">
              <mxPoint x="536" y="1034" />
            </Array>
          </mxGeometry>
        </mxCell>
        <mxCell id="Nj-z_g3joPaQe4eLbE7k-81" value="失败" style="curved=1;startArrow=none;endArrow=block;exitX=0.6;exitY=1;entryX=0.5;entryY=-0.01;rounded=0;" edge="1" parent="1" source="Nj-z_g3joPaQe4eLbE7k-64" target="Nj-z_g3joPaQe4eLbE7k-66">
          <mxGeometry relative="1" as="geometry">
            <Array as="points">
              <mxPoint x="748" y="1034" />
            </Array>
          </mxGeometry>
        </mxCell>
        <mxCell id="Nj-z_g3joPaQe4eLbE7k-82" value="" style="curved=1;startArrow=none;endArrow=block;exitX=0.5;exitY=1;entryX=0;entryY=0.13;rounded=0;" edge="1" parent="1" source="Nj-z_g3joPaQe4eLbE7k-57" target="Nj-z_g3joPaQe4eLbE7k-65">
          <mxGeometry relative="1" as="geometry">
            <Array as="points">
              <mxPoint x="98" y="1034" />
            </Array>
          </mxGeometry>
        </mxCell>
        <mxCell id="Nj-z_g3joPaQe4eLbE7k-83" value="" style="curved=1;startArrow=none;endArrow=block;exitX=0.5;exitY=1;entryX=0.5;entryY=-0.01;rounded=0;" edge="1" parent="1" source="Nj-z_g3joPaQe4eLbE7k-61" target="Nj-z_g3joPaQe4eLbE7k-65">
          <mxGeometry relative="1" as="geometry">
            <Array as="points" />
          </mxGeometry>
        </mxCell>
        <mxCell id="Nj-z_g3joPaQe4eLbE7k-84" value="" style="curved=1;startArrow=none;endArrow=block;exitX=0.5;exitY=0.99;entryX=0.5;entryY=-0.01;rounded=0;" edge="1" parent="1" source="Nj-z_g3joPaQe4eLbE7k-65" target="Nj-z_g3joPaQe4eLbE7k-67">
          <mxGeometry relative="1" as="geometry">
            <Array as="points" />
          </mxGeometry>
        </mxCell>
      </root>
    </mxGraphModel>
  </diagram>
</mxfile>
